<svg width="230" height="40" viewBox="0 0 230 40" fill="none" xmlns="http://www.w3.org/2000/svg">
<path d="M62.9812 30.216C61.6692 30.216 60.4372 30.04 59.2852 29.688C58.1492 29.336 57.1812 28.832 56.3812 28.176L57.4372 25.92C58.2692 26.544 59.1332 27.008 60.0292 27.312C60.9412 27.6 61.9332 27.744 63.0052 27.744C64.1892 27.744 65.1012 27.536 65.7412 27.12C66.3972 26.704 66.7252 26.12 66.7252 25.368C66.7252 24.728 66.4212 24.24 65.8132 23.904C65.2212 23.552 64.2372 23.224 62.8612 22.92C60.7172 22.456 59.1572 21.856 58.1812 21.12C57.2052 20.384 56.7172 19.312 56.7172 17.904C56.7172 16.896 56.9892 16 57.5332 15.216C58.0772 14.432 58.8452 13.816 59.8372 13.368C60.8452 12.92 62.0052 12.696 63.3172 12.696C64.5172 12.696 65.6532 12.88 66.7252 13.248C67.8132 13.6 68.7012 14.096 69.3892 14.736L68.3572 16.992C66.8372 15.776 65.1572 15.168 63.3172 15.168C62.2132 15.168 61.3412 15.4 60.7012 15.864C60.0612 16.312 59.7412 16.928 59.7412 17.712C59.7412 18.384 60.0212 18.896 60.5812 19.248C61.1572 19.6 62.1332 19.928 63.5092 20.232C64.9332 20.568 66.0932 20.936 66.9892 21.336C67.8852 21.72 68.5732 22.224 69.0532 22.848C69.5332 23.456 69.7732 24.224 69.7732 25.152C69.7732 26.176 69.5012 27.072 68.9572 27.84C68.4132 28.592 67.6292 29.176 66.6052 29.592C65.5812 30.008 64.3732 30.216 62.9812 30.216ZM84.0186 17.88V30H81.0666V28.056C80.6986 28.728 80.1706 29.256 79.4826 29.64C78.7946 30.008 78.0106 30.192 77.1306 30.192C76.0746 30.192 75.1386 29.936 74.3226 29.424C73.5066 28.912 72.8746 28.184 72.4266 27.24C71.9786 26.296 71.7546 25.2 71.7546 23.952C71.7546 22.704 71.9786 21.6 72.4266 20.64C72.8906 19.664 73.5306 18.912 74.3466 18.384C75.1626 17.84 76.0906 17.568 77.1306 17.568C78.0106 17.568 78.7946 17.76 79.4826 18.144C80.1706 18.512 80.6986 19.032 81.0666 19.704V17.88H84.0186ZM77.9466 27.84C78.9386 27.84 79.7066 27.496 80.2506 26.808C80.7946 26.12 81.0666 25.152 81.0666 23.904C81.0666 22.624 80.7946 21.64 80.2506 20.952C79.7066 20.264 78.9306 19.92 77.9226 19.92C76.9306 19.92 76.1546 20.28 75.5946 21C75.0506 21.704 74.7786 22.688 74.7786 23.952C74.7786 25.2 75.0506 26.16 75.5946 26.832C76.1546 27.504 76.9386 27.84 77.9466 27.84ZM98.7579 17.904L93.4539 30H90.8379L85.6059 17.904H88.7499L92.2299 26.592L95.7819 17.904H98.7579ZM100.317 17.88H103.293V30H100.317V17.88ZM103.461 12.384V15.336H100.125V12.384H103.461ZM112.071 30.192C110.839 30.192 109.751 29.936 108.807 29.424C107.879 28.912 107.159 28.184 106.647 27.24C106.151 26.28 105.903 25.16 105.903 23.88C105.903 22.6 106.151 21.488 106.647 20.544C107.159 19.584 107.879 18.848 108.807 18.336C109.751 17.824 110.839 17.568 112.071 17.568C113.287 17.568 114.359 17.824 115.287 18.336C116.215 18.848 116.927 19.584 117.423 20.544C117.935 21.488 118.191 22.6 118.191 23.88C118.191 25.16 117.935 26.28 117.423 27.24C116.927 28.184 116.215 28.912 115.287 29.424C114.359 29.936 113.287 30.192 112.071 30.192ZM112.047 27.84C113.071 27.84 113.847 27.512 114.375 26.856C114.919 26.184 115.191 25.192 115.191 23.88C115.191 22.584 114.919 21.6 114.375 20.928C113.831 20.24 113.063 19.896 112.071 19.896C111.063 19.896 110.287 20.24 109.743 20.928C109.199 21.6 108.927 22.584 108.927 23.88C108.927 25.192 109.191 26.184 109.719 26.856C110.263 27.512 111.039 27.84 112.047 27.84ZM131.818 17.88V30H128.89V28.128C128.506 28.8 127.994 29.312 127.354 29.664C126.714 30.016 125.978 30.192 125.146 30.192C122.186 30.192 120.706 28.528 120.706 25.2V17.88H123.682V25.224C123.682 26.104 123.858 26.752 124.21 27.168C124.578 27.584 125.138 27.792 125.89 27.792C126.77 27.792 127.474 27.504 128.002 26.928C128.53 26.352 128.794 25.584 128.794 24.624V17.88H131.818ZM141.603 17.592C142.067 17.592 142.467 17.656 142.803 17.784L142.779 20.52C142.267 20.312 141.739 20.208 141.195 20.208C140.171 20.208 139.387 20.504 138.843 21.096C138.315 21.688 138.051 22.472 138.051 23.448V30H135.075V21.312C135.075 20.032 135.011 18.888 134.883 17.88H137.691L137.931 20.016C138.235 19.232 138.715 18.632 139.371 18.216C140.027 17.8 140.771 17.592 141.603 17.592ZM159.027 30.216C157.347 30.216 155.875 29.856 154.611 29.136C153.363 28.416 152.403 27.4 151.731 26.088C151.059 24.76 150.723 23.208 150.723 21.432C150.723 19.672 151.059 18.136 151.731 16.824C152.403 15.496 153.363 14.48 154.611 13.776C155.875 13.056 157.347 12.696 159.027 12.696C160.179 12.696 161.259 12.88 162.267 13.248C163.291 13.6 164.139 14.096 164.811 14.736L163.803 16.992C163.035 16.368 162.267 15.92 161.499 15.648C160.747 15.36 159.939 15.216 159.075 15.216C157.427 15.216 156.147 15.752 155.235 16.824C154.339 17.896 153.891 19.432 153.891 21.432C153.891 23.448 154.339 25 155.235 26.088C156.131 27.16 157.411 27.696 159.075 27.696C159.939 27.696 160.747 27.56 161.499 27.288C162.267 27 163.035 26.544 163.803 25.92L164.811 28.176C164.139 28.816 163.291 29.32 162.267 29.688C161.259 30.04 160.179 30.216 159.027 30.216ZM178.847 17.88V30H175.895V28.056C175.527 28.728 174.999 29.256 174.311 29.64C173.623 30.008 172.839 30.192 171.959 30.192C170.903 30.192 169.967 29.936 169.151 29.424C168.335 28.912 167.703 28.184 167.255 27.24C166.807 26.296 166.583 25.2 166.583 23.952C166.583 22.704 166.807 21.6 167.255 20.64C167.719 19.664 168.359 18.912 169.175 18.384C169.991 17.84 170.919 17.568 171.959 17.568C172.839 17.568 173.623 17.76 174.311 18.144C174.999 18.512 175.527 19.032 175.895 19.704V17.88H178.847ZM172.775 27.84C173.767 27.84 174.535 27.496 175.079 26.808C175.623 26.12 175.895 25.152 175.895 23.904C175.895 22.624 175.623 21.64 175.079 20.952C174.535 20.264 173.759 19.92 172.751 19.92C171.759 19.92 170.983 20.28 170.423 21C169.879 21.704 169.607 22.688 169.607 23.952C169.607 25.2 169.879 26.16 170.423 26.832C170.983 27.504 171.767 27.84 172.775 27.84ZM188.642 17.592C189.106 17.592 189.506 17.656 189.842 17.784L189.818 20.52C189.306 20.312 188.778 20.208 188.234 20.208C187.21 20.208 186.426 20.504 185.882 21.096C185.354 21.688 185.09 22.472 185.09 23.448V30H182.114V21.312C182.114 20.032 182.05 18.888 181.922 17.88H184.73L184.97 20.016C185.274 19.232 185.754 18.632 186.41 18.216C187.066 17.8 187.81 17.592 188.642 17.592ZM201.886 24.096H193.534C193.598 25.392 193.918 26.352 194.494 26.976C195.086 27.584 195.958 27.888 197.11 27.888C198.438 27.888 199.67 27.456 200.806 26.592L201.67 28.656C201.094 29.12 200.382 29.496 199.534 29.784C198.702 30.056 197.854 30.192 196.99 30.192C195.006 30.192 193.446 29.632 192.31 28.512C191.174 27.392 190.606 25.856 190.606 23.904C190.606 22.672 190.854 21.576 191.35 20.616C191.846 19.656 192.542 18.912 193.438 18.384C194.334 17.84 195.35 17.568 196.486 17.568C198.15 17.568 199.462 18.112 200.422 19.2C201.398 20.272 201.886 21.752 201.886 23.64V24.096ZM196.558 19.728C195.758 19.728 195.102 19.968 194.59 20.448C194.094 20.912 193.774 21.592 193.63 22.488H199.27C199.174 21.576 198.894 20.888 198.43 20.424C197.982 19.96 197.358 19.728 196.558 19.728Z" fill="white"/>
<ellipse cx="21.8174" cy="19.8529" rx="21.1508" ry="19.7553" fill="white"/>
<path d="M36.2435 6.00146V13.5095H19.5221C19.3202 13.5078 19.1199 13.5361 18.9327 13.5929C18.7455 13.6497 18.5751 13.7337 18.4314 13.8402C18.3144 13.9272 18.219 14.029 18.1495 14.1411C18.305 12.2392 19.2644 10.4242 20.8881 8.96027C22.5117 7.49631 24.7149 6.45976 27.1769 6.00146H36.2435Z" fill="url(#paint0_linear_133_4)"/>
<path d="M27.4823 24.9373C27.3444 26.8487 26.395 28.6767 24.7733 30.1533C23.1517 31.6299 20.9431 32.6775 18.4712 33.1425H9.8208V25.636H26.0622C26.2688 25.6381 26.474 25.6086 26.6651 25.5496C26.8479 25.4936 27.0138 25.4105 27.1529 25.3053C27.2928 25.1994 27.4046 25.0745 27.4823 24.9373Z" fill="url(#paint1_linear_133_4)"/>
<path d="M37.5883 24.4859C37.5955 25.6439 37.2877 26.7907 36.6837 27.856C36.5609 28.0705 36.426 28.2818 36.2796 28.4876C36.2754 28.4962 36.2712 28.4994 36.2712 28.5053C36.2698 28.5097 36.2671 28.5139 36.2634 28.5175C35.021 30.2817 33.0087 31.6713 30.5641 32.4531C29.1427 32.9135 27.6099 33.1478 26.0621 33.1413H18.4748L18.5621 33.1236C21.0134 32.647 23.1992 31.5966 24.8029 30.1246C26.4066 28.6527 27.345 26.8354 27.4823 24.9361V24.9329C27.6273 24.6495 27.6301 24.336 27.4901 24.0511C27.4864 24.0452 27.4823 24.0362 27.4781 24.0303C27.4026 23.8933 27.2921 23.7688 27.1529 23.6638C27.0102 23.5565 26.8399 23.472 26.6524 23.4157C26.4649 23.3593 26.264 23.3321 26.0621 23.3359H19.5221C19.1969 23.3359 18.8716 23.3272 18.5501 23.3033C18.5386 23.3033 18.5265 23.3001 18.5108 23.3001C17.3095 23.2287 16.1324 23.0073 15.028 22.645C12.28 21.7563 10.0918 20.1082 8.91617 18.0415C8.76136 17.7753 8.62626 17.5028 8.51148 17.2253C8.16831 16.3946 7.99587 15.5295 8.00011 14.6597C7.99322 13.4991 8.30507 12.35 8.91617 11.2841C10.0986 9.22376 12.2853 7.58115 15.028 6.69288C15.8285 6.42959 16.6692 6.24146 17.531 6.13277C17.5629 6.12648 17.5864 6.12373 17.6021 6.12059C17.61 6.11908 17.618 6.11816 17.6262 6.11784C18.2527 6.03913 18.8868 5.99972 19.5221 6H27.1769C24.7148 6.4583 22.5116 7.49485 20.888 8.95881C19.2644 10.4228 18.305 12.2377 18.1495 14.1396C18.1328 14.1617 18.1183 14.1847 18.1061 14.2084C18.0278 14.3509 17.9887 14.5039 17.9911 14.6581C17.9889 14.8196 18.0292 14.9798 18.1098 15.1295C18.1182 15.1461 18.1289 15.162 18.1417 15.177C18.21 15.2963 18.3084 15.4046 18.4314 15.4959C18.5745 15.603 18.7448 15.6874 18.9322 15.7442C19.1195 15.801 19.3201 15.829 19.5221 15.8266H26.0621C27.6066 15.8205 29.1366 16.0506 30.5588 16.503C33.3241 17.3763 35.5239 19.0287 36.6864 21.106C36.84 21.3753 36.9738 21.6506 37.0874 21.9309C37.4233 22.759 37.5921 23.6202 37.5883 24.4859Z" fill="url(#paint2_linear_133_4)"/>
<g style="mix-blend-mode:multiply" opacity="0.16">
<g style="mix-blend-mode:multiply" opacity="0.16">
<path d="M27.4822 24.9373C27.3442 26.8487 26.3948 28.6767 24.7732 30.1533C23.1516 31.6299 20.9429 32.6775 18.4711 33.1425H16.0596C18.0832 32.4271 19.8696 31.3825 21.2894 30.0844C22.7093 28.7863 23.7269 27.2672 24.2686 25.6372H26.061C26.2677 25.6392 26.4727 25.6098 26.6639 25.5508C26.8467 25.4948 27.0126 25.4117 27.1518 25.3065C27.2922 25.2003 27.4043 25.075 27.4822 24.9373Z" fill="black"/>
</g>
</g>
<g style="mix-blend-mode:multiply" opacity="0.16">
<g style="mix-blend-mode:multiply" opacity="0.16">
<path d="M29.3505 6.00146C27.1173 7.24973 22.5841 10.1308 21.4416 13.5095H19.5221C19.3202 13.5078 19.1199 13.5361 18.9327 13.5929C18.7455 13.6497 18.5751 13.7337 18.4314 13.8402C18.3144 13.9272 18.219 14.029 18.1495 14.1411C18.305 12.2392 19.2644 10.4242 20.8881 8.96027C22.5117 7.49631 24.7149 6.45976 27.1769 6.00146H29.3505Z" fill="black"/>
</g>
</g>
<g style="mix-blend-mode:multiply" opacity="0.25">
<g style="mix-blend-mode:multiply" opacity="0.25">
<path d="M36.2436 8.2478V13.5111H22.2788C23.4406 13.4247 24.6066 13.3654 25.769 13.3233C26.9313 13.2813 28.0973 13.2448 29.2591 13.231C30.4251 13.2043 31.5875 13.2075 32.7535 13.1984C33.7992 13.2075 34.8355 13.2075 35.8792 13.2252C35.8907 12.8826 35.8991 12.5397 35.9184 12.1945C35.9383 11.7561 35.9582 11.3182 35.9942 10.8802C36.0517 10.0028 36.1286 9.12371 36.2436 8.2478Z" fill="black"/>
</g>
</g>
<g style="mix-blend-mode:screen" opacity="0.7">
<g style="mix-blend-mode:screen" opacity="0.7">
<path d="M37.5882 24.4861C37.5954 25.644 37.2876 26.7908 36.6837 27.8562C36.5608 28.0707 36.4259 28.282 36.2795 28.4878C36.3192 28.4073 36.4499 28.1507 36.6455 27.7576C36.9484 27.089 37.1467 26.3962 37.2363 25.6931C37.2928 25.2275 37.3049 24.7594 37.2724 24.2924C37.2326 23.7761 37.1371 23.263 36.9869 22.7583C36.9091 22.4972 36.8124 22.2396 36.6972 21.9864C36.5623 21.7245 36.4274 21.4589 36.2925 21.1938C35.9899 20.6724 35.6177 20.1754 35.182 19.7103C34.7574 19.2389 34.2666 18.8033 33.7179 18.4109C33.1894 18.0301 32.6159 17.6862 32.0045 17.3834C31.4245 17.1005 30.8158 16.8524 30.1838 16.6415C29.6146 16.4574 29.0273 16.307 28.427 16.1913C27.5133 16.0211 26.5791 15.9203 25.6385 15.8905C24.9483 15.8512 24.5557 15.828 24.5557 15.828H26.0589C27.6034 15.8218 29.1333 16.0519 30.5556 16.5044C33.3209 17.3776 35.5206 19.0301 36.6831 21.1074C36.8367 21.3766 36.9706 21.652 37.0842 21.9322C37.4209 22.7598 37.5908 23.6207 37.5882 24.4861Z" fill="white"/>
</g>
</g>
<g style="mix-blend-mode:multiply" opacity="0.25">
<g style="mix-blend-mode:multiply" opacity="0.25">
<path d="M17.2215 33.1413H9.8208V27.4656C9.91178 27.9393 9.96719 28.4083 10.0268 28.8839C10.0744 29.3576 10.1183 29.8313 10.146 30.3019C10.1858 30.7756 10.1936 31.2496 10.2171 31.7233L10.2333 32.8314C10.7128 32.8373 11.1928 32.8373 11.6728 32.8463C12.2877 32.8644 12.9026 32.8703 13.5211 32.9001C14.7546 32.9449 15.9881 33.0132 17.2215 33.1413Z" fill="black"/>
</g>
</g>
<g style="mix-blend-mode:screen" opacity="0.7">
<g style="mix-blend-mode:screen" opacity="0.7">
<path d="M18.5108 23.3002C17.3095 23.2287 16.1324 23.0073 15.028 22.645C12.28 21.7564 10.0918 20.1083 8.91617 18.0416C8.76136 17.7753 8.62626 17.5029 8.51148 17.2254C8.16831 16.3947 7.99587 15.5295 8.00011 14.6597C7.99322 13.4992 8.30507 12.3501 8.91617 11.2842C10.0986 9.22381 12.2853 7.58119 15.028 6.69292C15.8285 6.42963 16.6692 6.24151 17.531 6.13281C17.0987 6.21091 16.6723 6.30636 16.2536 6.41876C13.4134 7.18078 11.0636 8.72352 9.678 10.7358C8.7617 12.0572 8.33038 13.5381 8.42834 15.0262C8.45907 15.7739 8.63142 16.5146 8.94022 17.2258C9.0312 17.4073 9.11853 17.5891 9.20585 17.7678L9.26912 17.9018L9.28532 17.9348C9.28897 17.9403 9.29162 17.9463 9.29317 17.9524L9.3329 18.018L9.48348 18.2714C9.68378 18.5993 9.91296 18.9169 10.1695 19.2219C10.6558 19.8027 11.2295 20.3395 11.8793 20.8217C12.469 21.2533 13.1147 21.6396 13.8066 21.9749C14.3973 22.2565 15.0167 22.5025 15.6591 22.7106C16.1604 22.8707 16.6775 23.0013 17.2058 23.101C17.636 23.1839 18.0716 23.2503 18.5108 23.3002Z" fill="white"/>
</g>
</g>
<g style="mix-blend-mode:screen" opacity="0.7">
<g style="mix-blend-mode:screen" opacity="0.7">
<path d="M27.1768 6.00146C24.7148 6.45976 22.5116 7.49631 20.888 8.96027C19.2643 10.4242 18.305 12.2392 18.1495 14.1411C18.1327 14.1632 18.1182 14.1862 18.1061 14.2098L18.138 14.1352C18.1259 13.8995 18.1259 13.6615 18.1259 13.4231C18.1495 13.1851 18.185 12.9467 18.2169 12.7051C18.2692 12.4694 18.3398 12.2338 18.3994 11.9981C18.4789 11.7624 18.5861 11.5362 18.6771 11.3009C18.7816 11.0715 18.9113 10.8508 19.0378 10.6245C19.1727 10.4042 19.3317 10.1925 19.4744 9.97486C19.6407 9.76354 19.8232 9.564 19.9973 9.35543C20.1876 9.15904 20.3858 8.96501 20.5845 8.77411C20.7983 8.58951 21.0247 8.41393 21.2428 8.23482C21.4807 8.06828 21.7134 7.90135 21.9607 7.74031L22.734 7.29647C23.0038 7.16253 23.2773 7.03723 23.5549 6.90918C23.8446 6.80195 24.1264 6.68569 24.4156 6.58121L25.3123 6.31922C25.626 6.25049 25.9308 6.18214 26.2404 6.12283C26.5499 6.0757 26.8636 6.03721 27.1768 6.00146Z" fill="white"/>
</g>
</g>
<g style="mix-blend-mode:screen" opacity="0.7">
<g style="mix-blend-mode:screen" opacity="0.7">
<path d="M27.554 24.933C27.5577 25.1773 27.5577 25.4157 27.5499 25.6569C27.53 25.8984 27.4903 26.1369 27.4547 26.378C27.3993 26.6163 27.3359 26.8547 27.2644 27.0933C27.1849 27.329 27.0819 27.5611 26.9904 27.7932C26.8858 28.0257 26.7488 28.2461 26.6244 28.4727C26.49 28.6962 26.3352 28.9107 26.1841 29.1283C26.0215 29.3396 25.8396 29.5423 25.6649 29.7508C25.4746 29.9504 25.2759 30.1436 25.0777 30.3377C24.8639 30.5227 24.6375 30.7014 24.4194 30.8828C24.1815 31.0529 23.9489 31.2199 23.7015 31.3836L22.9277 31.8306C22.6579 31.9647 22.3843 32.0956 22.1068 32.2234L21.2461 32.56L20.3458 32.8311L19.4213 33.0337C19.1834 33.0695 18.9507 33.1052 18.7154 33.1351L18.7677 33.141L18.4937 33.1649C18.4901 33.1681 18.4817 33.1681 18.4781 33.1681L18.4739 33.141L18.4702 33.1142L18.5612 33.1233C21.0125 32.6466 23.1983 31.5963 24.802 30.1243C26.4057 28.6523 27.3441 26.8351 27.4814 24.9357V24.9326C27.5583 24.7908 27.5961 24.6387 27.5922 24.4856C27.621 24.6351 27.608 24.7874 27.554 24.933Z" fill="white"/>
</g>
</g>
<defs>
<linearGradient id="paint0_linear_133_4" x1="36.2435" y1="10.0713" x2="18.8914" y2="10.0713" gradientUnits="userSpaceOnUse">
<stop stop-color="#6888C8"/>
</linearGradient>
<linearGradient id="paint1_linear_133_4" x1="9.132" y1="29.0399" x2="25.8045" y2="29.0399" gradientUnits="userSpaceOnUse">
<stop stop-color="#6888C8"/>
<stop offset="0.940625" stop-color="#69DCFC"/>
</linearGradient>
<linearGradient id="paint2_linear_133_4" x1="22.7942" y1="5.78287" x2="22.7942" y2="33.8742" gradientUnits="userSpaceOnUse">
<stop stop-color="#345392"/>
<stop offset="0.83125" stop-color="#6DDDFC"/>
</linearGradient>
</defs>
</svg>
